<svg id="レイヤー_1" data-name="レイヤー 1" xmlns="http://www.w3.org/2000/svg" viewBox="0 0 611.98 203.4"><defs><style>.cls-1{fill:#56311e;}</style></defs><title>kaji_library</title><path class="cls-1" d="M.4,172.2H0v-9l.4.4Zm.6-34H.8V132H1Zm7,62H7q-1.61,0-3.6-8.2a196,196,0,0,1-2.2-28q.2-21.6.8-25Q4.21,90.4,17.6,51.4,22.4,37.2,28,23.8a4.59,4.59,0,0,0,1.2-3.4,2.19,2.19,0,0,0-1.4,2.2L25,27.4a43.75,43.75,0,0,1,6.4-16C32.47,9.8,33.6,9,34.8,9a25,25,0,0,1,7,1.8q7,2.4,7,6.2,0,2.2-2.8,6.4-9.41,15-18.8,41.4-8.4,19-12.6,44.2a8.1,8.1,0,0,0-.4,2.6l.4,1.2A1.44,1.44,0,0,0,16,112a.35.35,0,0,0,.4-.4,5.71,5.71,0,0,1,1.8-1.8,33.65,33.65,0,0,0,9.8-7.2,76.39,76.39,0,0,1,6-5,3.66,3.66,0,0,0,1-1,49.55,49.55,0,0,1,8-7.8q6.41-4.2,13.8-14A206.37,206.37,0,0,0,73.4,51.4a11.79,11.79,0,0,0,2.4-4.6,8.9,8.9,0,0,1,2.4-4.2,39.06,39.06,0,0,0,8-12.8A26.59,26.59,0,0,0,89,24.2a16.52,16.52,0,0,1,1.4-3.4A26.44,26.44,0,0,0,94,6.6a11.14,11.14,0,0,0-.3-2.5,8.52,8.52,0,0,0-.8-2.2A3.27,3.27,0,0,1,92.4.6c0-.4.53-.6,1.6-.6q8.81.6,8.8,9a24.07,24.07,0,0,1-2.4,8.8Q86,56.61,52.6,90q-21.41,20.6-35,27-4.4,1.8-4.4,3.4.41,1.39,5,11A95.41,95.41,0,0,0,37.6,162a6.32,6.32,0,0,0,4.4,2.2,7.42,7.42,0,0,0,3.8-1.2q10.8-5.2,22.2-26.8c0-.8.27-1.27.8-1.4a15.42,15.42,0,0,0,5.8-7Q79.6,117.6,95,97a12.18,12.18,0,0,1,5-3.8,7.2,7.2,0,0,0,4.2-4.4c.27-.8.67-1.27,1.2-1.4,2.4,0,3.6.53,3.6,1.6a2.13,2.13,0,0,1-1.4,1.9q-1.39.7-7.6,9.7a106.57,106.57,0,0,0-9,12.2q-25.4,43-35.4,52.8-4.4,4.2-9.4,4.2a16.74,16.74,0,0,1-7.4-2q-12.6-6.41-20.6-22.6L14,136.6a15.76,15.76,0,0,0-1.6-3.4,1.62,1.62,0,0,0-.8,1.6q-1.8,22-1.8,32.8,0,21,2,27.4l.4,2.2Q12.2,198,8,200.2ZM17,48.8a28.3,28.3,0,0,0,.7-3.2,22.58,22.58,0,0,1,1-3.8,8.69,8.69,0,0,1,2.5-3.6Zm4.2-11.2L21,37a22.88,22.88,0,0,1,2.4-6.8,10.7,10.7,0,0,1-.8,4.5C22.07,35.83,21.6,36.8,21.2,37.6Zm0,32.8q1.2-2,5.4-14.8A45.89,45.89,0,0,0,21.2,70.4Zm8-50a11.65,11.65,0,0,0,3-6A7.39,7.39,0,0,0,29.2,20.4Zm3-6A3.39,3.39,0,0,0,34,11.2,4.44,4.44,0,0,0,32.2,14.4Z"/><path class="cls-1" d="M126.2,149.2a5,5,0,0,1-2.2-.8,35.67,35.67,0,0,1-3.2-2.1,4.3,4.3,0,0,1-1.8-3.7,38.92,38.92,0,0,1,1-9.4,71.66,71.66,0,0,1,.4-7.6l1,2.2-.2-2.4a1.92,1.92,0,0,0,1.2-1.8,28.68,28.68,0,0,1,.6-5.6q.8-4.6,1.4-9.4,1.2-14,2.8-15.6l.2-1.2a1.06,1.06,0,0,0-1.2-1.2,1.92,1.92,0,0,0-1.2,1.8q-7.2,11.8-13.8,23.4-6,9.4-8,9.4c-1.07,0-2.53-.8-4.4-2.4s-3-3.1-3.3-4.5A15.43,15.43,0,0,1,95,115q0-1.8,1.8-7.6,2.2-6.8,2.8-8,0-3.41,4.8-10.6l2.4-5c.93,0,1.4-.6,1.4-1.8,1.07-1.07,1.6-1.8,1.6-2.2a5.51,5.51,0,0,1,4.2-2q7.4,0,10.4,6a14,14,0,0,0,2.1-2.7,15.16,15.16,0,0,1,2.3-2.9c.93-.93,1.67-1.4,2.2-1.4a2.76,2.76,0,0,1,2.5,1.9,9,9,0,0,1,.9,3.9v.8Q131.6,99,126.6,139l.2,2.4q3-4.2,6.6-10.5t6.9-12.6q3.3-6.3,6.1-10.9a42.65,42.65,0,0,1-3.6,12,10.29,10.29,0,0,0-3,7.6v.6a1.92,1.92,0,0,1-1.2,1.8,2.71,2.71,0,0,1-.4,1.8,65.78,65.78,0,0,1-7.8,14Q128.6,149.21,126.2,149.2Zm-21.8-34.6a63,63,0,0,0,5.4-8.8,30.5,30.5,0,0,1,8.4-12,7.7,7.7,0,0,0,1.7-3.8c.07-1.07.1-2.13.1-3.2V84.4h-.6a2.28,2.28,0,0,0-1,.2,3.66,3.66,0,0,0-1,1,78.76,78.76,0,0,0-8.2,13.6A58.93,58.93,0,0,0,104.4,114.6Zm8-3.6a26.9,26.9,0,0,0,2.4-4.6Q112.6,107.6,112.4,111Zm2.4-24.6.6-.4-.2-.4-.6.6-.2.2Zm31.6,28,4.4-13.2a8.08,8.08,0,0,0,1.2-3.4,35.47,35.47,0,0,1,2.8-7.2,20.46,20.46,0,0,0,1.3-2.2c.33-.67.7-1,1.1-1,1.07,0,1.6.67,1.6,2l-.4,1.8Q148,114.41,146.4,114.4Z"/><path class="cls-1" d="M126.2,190.8q-7.8,0-7.8-8.4a7.65,7.65,0,0,1,.3-2.2,15.66,15.66,0,0,0,.3-3.8,2.45,2.45,0,0,0,.4-1.4q1.39-9.41,4.8-14.8,1.2-1.8,5-9.6a10.48,10.48,0,0,0,1.6-2.6,79,79,0,0,1,6-9.4,21.69,21.69,0,0,0,3.7-5.2,6.77,6.77,0,0,1,4.7-3.8,1.79,1.79,0,0,0,1.2-1.2,11.85,11.85,0,0,1,2.7-6q2.1-2.4,2.8-8.8a52.84,52.84,0,0,1,3.1-12.8,95.09,95.09,0,0,1,1.5-15.2A90.2,90.2,0,0,0,158,73q.39-1.8,1.2-1.8a6.65,6.65,0,0,1,4.2,5.4,54,54,0,0,1-.2,14.6,53.34,53.34,0,0,0-.5,6.2,52.34,52.34,0,0,1-.7,7,2.91,2.91,0,0,0,.6,1.8l19.2-16.4c.13,0,.36.2.7.6a1.75,1.75,0,0,1,.5,1q0,2-16.6,16.6c-3.34,3.07-5.1,4.93-5.3,5.6a16.41,16.41,0,0,0-.5,2.4c-.14.93-.27,1.87-.4,2.8q-1.2,10.2-3,20.2a108,108,0,0,1-15.6,37.4Q132.79,190.8,126.2,190.8Zm-1.8-4.2q1.8,0,5-4.3a37.89,37.89,0,0,0,4.4-7.1l1.2-1.4-.4-1.6a20,20,0,0,0,3-5v.2a.35.35,0,0,0,.4.4l1.8-4.2h-.6c1.6-1.07,2.4-2,2.4-2.8a2.69,2.69,0,0,1,.2-1.4c-.4,0-.63.1-.7.3a2.93,2.93,0,0,0-.1.9,11.78,11.78,0,0,1,1.4-5.2,143.37,143.37,0,0,0,7-25.8.78.78,0,0,0-.6-.8L146,132a1.06,1.06,0,0,1-1.2,1.2l-.4-.2-.4.2a.46.46,0,0,0-.5.3.46.46,0,0,1-.5.3,38.47,38.47,0,0,0-2.5,4.6,12.55,12.55,0,0,1-3.5,4.4l-.2,1a1.17,1.17,0,0,1,.2.8q-12.8,20.81-14.6,34l-.4,2q0,4.2,1.8,6Zm14.2-29a.78.78,0,0,1-.6-.8c0-.53.47-.8,1.4-.8A3,3,0,0,0,138.6,157.6Zm12-27.6a5.35,5.35,0,0,1,.1-1.1,11,11,0,0,1,.3-1.1l-.2-1.2a3.86,3.86,0,0,0-.6,2Zm1.8-9.6c.8-.53,1.2-2.87,1.2-7v-1.2Zm9.8-62.2a1.24,1.24,0,0,1-1.4-1.4q-1.61-1.61-1.6-6.6,0-6.41,2.4-6.4c1.46,0,2.2,1.53,2.2,4.6a12,12,0,0,0-1.4,5.8l.2,1.4C162.6,57.33,162.46,58.2,162.2,58.2Zm21.8,32c-.67-.13-1-.4-1-.8a1.83,1.83,0,0,1,1.1-1.4,3.68,3.68,0,0,1,1.3-.4,2.59,2.59,0,0,1,.6.4.82.82,0,0,1,.2.6A2.28,2.28,0,0,1,184,90.2Z"/><path class="cls-1" d="M189.8,132a11.56,11.56,0,0,1-3.2-1.2q-5.81-1.8-5.8-16.8,0-19.4,4.6-33c.53-2.53,1.2-3.8,2-3.8,3.2,1.07,4.8,1.93,4.8,2.6a166.57,166.57,0,0,0-3.8,33q.6,13.61,1.2,13.8,1.59,0,12.2-18.6c.8-1.33,1.86-2.9,3.2-4.7a33.65,33.65,0,0,0,3.4-5.7c.4-1.07,1.4-1.6,3-1.6a3.33,3.33,0,0,1-.4,1.8,2.81,2.81,0,0,0-.4,1.6h.8a11.48,11.48,0,0,1-1.8,3.6q-3,3-10.2,17.4Q193.19,132,189.8,132ZM195,65.8a2.46,2.46,0,0,1-1.5-.9,2.88,2.88,0,0,1-.9-2.1Q194.19,52,196.4,52c1.73,0,2.6.93,2.6,2.8l-.4,1.4q-3,6.4-3,9A.53.53,0,0,1,195,65.8Zm16.8,33L212,97a.64.64,0,0,0,.4-.6q0-1-.6-1.2a13.59,13.59,0,0,0,1-2.9,8.65,8.65,0,0,1,1.3-3,5.84,5.84,0,0,1,1.4-1.6,2.09,2.09,0,0,1,1.1-.3l2,1.2Z"/><path class="cls-1" d="M245.19,201.4q-5,0-6-4a4.84,4.84,0,0,1,.4-2.5c.27-.33.47-.5.6-.5q1.8-2.4,13-9.4a54.78,54.78,0,0,1,12.8-5.6,7.89,7.89,0,0,0,4.2-1.6c.67-.13,1-1.87,1-5.2l-.2-6.2a58.67,58.67,0,0,1,.8-9.6,61.1,61.1,0,0,0,.8-10l.6-4.8Q276,102.6,280,81.2l.4-1.6a7,7,0,0,1,2-5.2l.2-.8a1.17,1.17,0,0,0-.2-.8,6.45,6.45,0,0,0,1.2-3.6q.6-.6,4-18.6a33.92,33.92,0,0,1,1.6-5.6,2.81,2.81,0,0,1,.4-1.6,70.08,70.08,0,0,0,3.8-15.8,58.94,58.94,0,0,1,2-5.8l1.6-3.6A34.81,34.81,0,0,1,303,7c.53-1.07,1.07-1.6,1.6-1.6s1.27.57,1.8,1.7a18.5,18.5,0,0,1,1.1,2.8,7,7,0,0,1,.3,1.7,6.27,6.27,0,0,1-.6,2.4q-13.4,38.4-23.6,108.6-3.19,23.6-5.8,47.4v1.6c0,2.27.4,3.4,1.2,3.4a31.33,31.33,0,0,0,5.8-2,35.29,35.29,0,0,1,10.6-2.4,66.79,66.79,0,0,0,14.5-2.9q7.31-2.3,20.1-3.5,7.2-.4,13.7-1.4t13.1-1.6q11,0,12,1.2c-.13.27-.27.4-.4.4s-1.07.13-2.8.4l-.4.6a1.17,1.17,0,0,0,.2.8,28.21,28.21,0,0,0,5.2.2h6.2a5,5,0,0,1,2.6.6,3.1,3.1,0,0,1,2.1.5,3.42,3.42,0,0,1,.7,1.9v.2H379q-2.6-1.2-11.4-1.2a76.89,76.89,0,0,0-8.6.5c-2.93.33-5.93.57-9,.7a102.14,102.14,0,0,0-24,3.4l-8.4,1.2q-10.8,2.6-21.6,4.6a51.32,51.32,0,0,0-10,3q-8.4,2.81-11.8,3.6A108.88,108.88,0,0,0,247,196.4c-1.46.8-2.2,1.67-2.2,2.6Zm18.8-16a8.48,8.48,0,0,0-4.2,2.2,8.25,8.25,0,0,1,1.3-.3,7.52,7.52,0,0,0,1.7-.5A2.55,2.55,0,0,0,264,185.4Zm.6-.2,1.2.2c.4-.13.8-.6,1.2-1.4Zm17.8-112.4.2-3,.2,1ZM296,175.6a13.58,13.58,0,0,1,1.9-.3,15.66,15.66,0,0,0,2.3-.4,7.79,7.79,0,0,0,2.4-1.1l-2,.2A7.7,7.7,0,0,0,296,175.6Zm41.2-7.2a3.86,3.86,0,0,0-2-.6l-2,.2,1.4.4Zm0,0a28.87,28.87,0,0,1,8.2-1.6,1.63,1.63,0,0,0-1.2-.4c-.53,0-.8-.2-.8-.6l.4-1-1.4-.2-7.4,1.8a3.26,3.26,0,0,0,1.2,1.3A3.78,3.78,0,0,1,337.19,168.4Zm42.2-3a1.5,1.5,0,0,0-.4-.7,6.7,6.7,0,0,0-2-1.3h1C378.92,163.4,379.39,164.07,379.39,165.4Z"/><path class="cls-1" d="M338,132a11.56,11.56,0,0,1-3.2-1.2Q329,129,329,114q0-19.4,4.6-33c.53-2.53,1.2-3.8,2-3.8,3.2,1.07,4.8,1.93,4.8,2.6a167.32,167.32,0,0,0-3.8,33q.6,13.61,1.2,13.8,1.6,0,12.2-18.6,1.2-2,3.2-4.7a33,33,0,0,0,3.4-5.7c.4-1.07,1.4-1.6,3-1.6a3.24,3.24,0,0,1-.4,1.8,2.81,2.81,0,0,0-.4,1.6h.8a11.48,11.48,0,0,1-1.8,3.6q-3,3-10.2,17.4Q341.4,132,338,132Zm5.2-66.2a2.46,2.46,0,0,1-1.5-.9,2.88,2.88,0,0,1-.9-2.1q1.6-10.8,3.8-10.8c1.73,0,2.6.93,2.6,2.8l-.4,1.4q-3,6.4-3,9A.53.53,0,0,1,343.19,65.8Zm16.8,33,.2-1.8a.63.63,0,0,0,.4-.6q0-1-.6-1.2a13.59,13.59,0,0,0,1-2.9,8.84,8.84,0,0,1,1.3-3,6,6,0,0,1,1.4-1.6,2.09,2.09,0,0,1,1.1-.3l2,1.2Z"/><path class="cls-1" d="M358.79,121.6l-.2-2.6a14.61,14.61,0,0,1,.8-4.6l.2,1.6A34.08,34.08,0,0,1,358.79,121.6Zm.6-11a39.4,39.4,0,0,1,1-8.8,2.46,2.46,0,0,1,.6,1,14.67,14.67,0,0,0-1.4,4.6C359.46,108.73,359.39,109.8,359.39,110.6ZM373,167.2h-1c-2.94,0-4.4-1.07-4.4-3.2v-1.2q0-11.2,9.8-28.6,1.39-4.8,11.8-19.8a20,20,0,0,0,1.8-9c0-5.47-.54-8.2-1.6-8.2q-2.81.19-5.6,4.2Q373,112.8,369.39,132c-.67,2.27-1.27,3.4-1.8,3.4l-1.4-.2q-6-.19-6.2-4.4l-.2-6a113.94,113.94,0,0,1,1.6-19.2,17.41,17.41,0,0,0,.2-2.3,10.09,10.09,0,0,1,.3-2.2c.2-.87.37-1.67.5-2.4a6.49,6.49,0,0,1,.4-1.5,1.63,1.63,0,0,0,.2-.6l-.6-2a64.07,64.07,0,0,1,1.4-9.6.18.18,0,0,1,.2-.2,172.12,172.12,0,0,1,6.2-22.4,2.13,2.13,0,0,1,.4-1.2,4.07,4.07,0,0,1,1.2-3l.4,1c.66-.67,1-1.2,1-1.6L373,57a6,6,0,0,0,1.6-3q.39-.6,3-6.8a27.68,27.68,0,0,0,2-5,7,7,0,0,1,1.4-3.9,12.83,12.83,0,0,0,1.8-2.9,26.42,26.42,0,0,1,2.9-4.4,19.93,19.93,0,0,0,2.5-3.8,18.14,18.14,0,0,1,7.4-6.6A2.46,2.46,0,0,1,397,20c2.8,1.2,4.26,3,4.4,5.4q0,2-2.4,9.8-10,27.6-22.6,46.6-3,4.8-4.2,16.4a11.05,11.05,0,0,0-.8,4.2l.4.6a27.8,27.8,0,0,1,4.6-4.7,43.52,43.52,0,0,0,4.4-4,7.75,7.75,0,0,1,5.4-2.3,13.45,13.45,0,0,1,4.6.8,2.7,2.7,0,0,0,1.6,1,8.22,8.22,0,0,1,5.8,6.6c0,.53.13.8.4.8q.8,0,1.8-1.2,11.6-12.8,14.4-12.8c.4,0,.8.33,1.2,1a1.9,1.9,0,0,0-.4,1q-17,14-17,19.2v.2a103.17,103.17,0,0,1-14.2,48Q378.39,167,373,167.2Zm-12.6-67.6a8,8,0,0,0,.3-1.6,10.21,10.21,0,0,1,.5-2.2l.2,2.8Zm11,55.8-.2-1.2-.4.8C370.79,155.13,371,155.27,371.39,155.4Zm0,4.2a8.17,8.17,0,0,0,.6-2.8,2.2,2.2,0,0,0-.4-1.2,9.62,9.62,0,0,0-.6,3.4Zm1.8-12.6v-1l-.4.4Zm0,13.2a7.43,7.43,0,0,1,4-3.8.53.53,0,0,0,.6-.6,101.89,101.89,0,0,0,8.2-18.6v-1.4a4.62,4.62,0,0,1,.8-1.7,4.82,4.82,0,0,0,.8-2.5v-1.2a12.44,12.44,0,0,1,1.4-4,19.73,19.73,0,0,1-.6-4.8Q374.59,144.4,373.19,160.2Zm5.4-91.4q4-6,10.6-23.6a45.83,45.83,0,0,1,2.6-5.2,35.7,35.7,0,0,0,4.6-12.4q-2.4,2-6.6,10.6a179.92,179.92,0,0,0-7.5,17.7Q379,65,378.59,68.8Z"/><path class="cls-1" d="M424.59,149.6q-7.6,0-7.6-10.6a136.1,136.1,0,0,1,3.6-28.6l.4-4a40.69,40.69,0,0,0,2.7-9.3,38.51,38.51,0,0,1,.9-4.9,1.42,1.42,0,0,0-1.6-1.6q-.6.6-4.2.6-5.61,0-8.6-5.6a7,7,0,0,1-1-3.4,14.35,14.35,0,0,1,3.6-9.2,5,5,0,0,1,3.6-2,2.48,2.48,0,0,1,2.8,2.8L416.59,85c0,.53,1.53.8,4.6.8l1.2-.2q3.39,0,7.2,3.8a5.1,5.1,0,0,1,1,3,40.53,40.53,0,0,1-1.6,10,224.74,224.74,0,0,0-5.4,34.8,10.29,10.29,0,0,0,.6,3.2,41.18,41.18,0,0,0,5.5-9.5,41.17,41.17,0,0,1,5.7-9.7q5.6-6.4,14-29.6a2.81,2.81,0,0,1,.4-1.6c0-1.2.33-1.93,1-2.2h.2a2.48,2.48,0,0,1,1.2.6c.53.27.8.93.8,2V91q-4.41,18.41-17,41.6-6,11-8.2,13.8c0,.27-.07.4-.2.4C426.65,148.67,425.65,149.6,424.59,149.6Z"/><path class="cls-1" d="M471,149.2a5,5,0,0,1-2.2-.8,35.67,35.67,0,0,1-3.2-2.1,4.3,4.3,0,0,1-1.8-3.7,39.43,39.43,0,0,1,1-9.4,74.41,74.41,0,0,1,.4-7.6l1,2.2-.2-2.4a1.92,1.92,0,0,0,1.2-1.8,28.68,28.68,0,0,1,.6-5.6c.54-3.07,1-6.2,1.4-9.4q1.2-14,2.8-15.6l.2-1.2a1.06,1.06,0,0,0-1.2-1.2,1.92,1.92,0,0,0-1.2,1.8q-7.2,11.8-13.8,23.4-6,9.4-8,9.4-1.59,0-4.4-2.4a9.4,9.4,0,0,1-3.3-4.5,15.43,15.43,0,0,1-.5-3.3q0-1.8,1.8-7.6,2.21-6.8,2.8-8,0-3.41,4.8-10.6l2.4-5c.93,0,1.4-.6,1.4-1.8,1.07-1.07,1.6-1.8,1.6-2.2a5.51,5.51,0,0,1,4.2-2q7.39,0,10.4,6a14,14,0,0,0,2.1-2.7,15.16,15.16,0,0,1,2.3-2.9c.93-.93,1.67-1.4,2.2-1.4a2.76,2.76,0,0,1,2.5,1.9,9,9,0,0,1,.9,3.9v.8q-2.79,15.6-7.8,55.6l.2,2.4q3-4.2,6.6-10.5t6.9-12.6q3.3-6.3,6.1-10.9a42.65,42.65,0,0,1-3.6,12,10.29,10.29,0,0,0-3,7.6v.6a1.92,1.92,0,0,1-1.2,1.8,2.71,2.71,0,0,1-.4,1.8,65.78,65.78,0,0,1-7.8,14Q473.38,149.21,471,149.2Zm-21.8-34.6a61,61,0,0,0,5.4-8.8,30.5,30.5,0,0,1,8.4-12,7.61,7.61,0,0,0,1.7-3.8c.07-1.07.1-2.13.1-3.2V84.4h-.6a2.28,2.28,0,0,0-1,.2,3.66,3.66,0,0,0-1,1A78.76,78.76,0,0,0,454,99.2,59.31,59.31,0,0,0,449.18,114.6Zm8-3.6a26.9,26.9,0,0,0,2.4-4.6Q457.39,107.6,457.18,111Zm2.4-24.6.6-.4-.2-.4-.6.6-.2.2Zm31.6,28,4.4-13.2a8,8,0,0,0,1.2-3.4,36.69,36.69,0,0,1,2.8-7.2,18.93,18.93,0,0,0,1.3-2.2c.33-.67.7-1,1.1-1,1.07,0,1.6.67,1.6,2l-.4,1.8Q492.79,114.41,491.18,114.4Z"/><path class="cls-1" d="M512,149.6q-7.59,0-7.6-10.6a136.1,136.1,0,0,1,3.6-28.6l.4-4a40.69,40.69,0,0,0,2.7-9.3,43.24,43.24,0,0,1,.9-4.9,1.41,1.41,0,0,0-1.6-1.6q-.6.6-4.2.6-5.6,0-8.6-5.6a7.1,7.1,0,0,1-1-3.4,14.35,14.35,0,0,1,3.6-9.2,5,5,0,0,1,3.6-2,2.47,2.47,0,0,1,2.8,2.8L504,85c0,.53,1.53.8,4.6.8l1.2-.2q3.4,0,7.2,3.8a5,5,0,0,1,1,3,40.06,40.06,0,0,1-1.6,10,225.94,225.94,0,0,0-5.4,34.8,10.29,10.29,0,0,0,.6,3.2,40.82,40.82,0,0,0,5.5-9.5,41.17,41.17,0,0,1,5.7-9.7q5.6-6.4,14-29.6a2.89,2.89,0,0,1,.4-1.6c0-1.2.33-1.93,1-2.2h.2a2.4,2.4,0,0,1,1.2.6c.53.27.8.93.8,2V91q-4.39,18.41-17,41.6-6,11-8.2,13.8c0,.27-.07.4-.2.4C514.05,148.67,513.05,149.6,512,149.6Z"/><path class="cls-1" d="M579,116.8a7.59,7.59,0,0,0-2.4,4.8q-8,41-23,67.8-8.4,14-14.8,14-8,0-8-8v-3.6a3.46,3.46,0,0,0,1.2-2.4,5.73,5.73,0,0,1,.3-2,8.57,8.57,0,0,0,.4-2.3,7.08,7.08,0,0,1,.7-2.7,99.94,99.94,0,0,1,10.2-23q9.4-18.6,20.4-31.2a12.94,12.94,0,0,0,3-6.4q7-31.2,7.2-34.2,0-5.4-.6-5.4-3.6,0-16.8,19.2-7.2,11.4-11,11.4-2.21,0-5.4-2.6a13.48,13.48,0,0,1-4.8-10.6,56,56,0,0,1,3.8-20.4,1.94,1.94,0,0,1,1.8-1.4,15.32,15.32,0,0,1,4.5,2.6,2.88,2.88,0,0,1,.9,1.8l-3.2,22c.13.93.53,1.4,1.2,1.4,1.2,0,1.8-.27,1.8-.8a15.37,15.37,0,0,0,2.4-2.6c.8-1.07,1.67-2.2,2.6-3.4a117.87,117.87,0,0,0,10.8-15.6,3.11,3.11,0,0,0,2.4-2.2,9.49,9.49,0,0,1,7.8-3.8,8.17,8.17,0,0,1,2.8.6q6,3.2,6,12.6a23.13,23.13,0,0,1-.3,3.8,18.86,18.86,0,0,0-.3,3,81.91,81.91,0,0,1-1.6,12c0,1.07.13,1.67.4,1.8l9.6-9c0,.27.07.4.2.4q-3.2,4.8-3.2,7.2-1.2,1.2-2.9,3.1C582,114,580.58,115.33,579,116.8ZM561.38,150a2.81,2.81,0,0,1-.4-1.6v-1a48.45,48.45,0,0,0,2.4-9.4,2.28,2.28,0,0,1,.2-1,8,8,0,0,0,.4-1l-.2-1.2-1.2,1.2v.2a152.54,152.54,0,0,0-21.6,39q-4.61,12-4.6,20.2a5.71,5.71,0,0,0,1,3,30,30,0,0,0,5-5.9q1.8-2.9,2.9-4.7c.73-1.2,1.37-2.2,1.9-3a.35.35,0,0,0,.4.4,1.63,1.63,0,0,0,.6-1l-.4-.8c.8,0,1.3-.27,1.5-.8a1.74,1.74,0,0,1,.7-1,117,117,0,0,0,9.8-27l-1,1.2-.2-.2c1.07-3.73,1.73-5.67,2-5.8ZM540,174.4a2.44,2.44,0,0,0,.6-1.8,1.74,1.74,0,0,0-.8,1.4Zm20.2-21.2a13.5,13.5,0,0,1,.6-1.8.18.18,0,0,1-.2.2A3.51,3.51,0,0,0,560.18,153.2Zm2.4-19a1.57,1.57,0,0,0,1.2-1.6A1.57,1.57,0,0,0,562.58,134.2ZM579,116.8c0-.67-.07-1-.2-1l-.2-.2-.2.2a1.35,1.35,0,0,0,.4,1Zm13.8-13.6h-.6l.6-.6a.35.35,0,0,1,.4.4C592.91,103,592.78,103.07,592.78,103.2Zm2.4-2h-.8c0-.27.2-.5.6-.7a1.12,1.12,0,0,0,.6-1.1V99a1.14,1.14,0,0,0-.4-.8,1.74,1.74,0,0,0,.3-.4.33.33,0,0,1,.3-.2q9.6-9.6,14.6-9.8h.4a1.63,1.63,0,0,1,1.2.4q0,1.2-2.4,3a100.29,100.29,0,0,0-14,9.6A.35.35,0,0,1,595.18,101.2Z"/></svg>